<?xml version="1.0" encoding="utf-8"?>
<!-- Generator: Adobe Illustrator 24.1.0, SVG Export Plug-In . SVG Version: 6.00 Build 0)  -->
<svg version="1.1" id="Capa_1" xmlns="http://www.w3.org/2000/svg" xmlns:xlink="http://www.w3.org/1999/xlink" x="0px" y="0px"  width="19px" height="19px"
	 viewBox="0 0 533.3 533.3" style="enable-background:new 0 0 533.3 533.3;" xml:space="preserve">
<g>
	<path d="M470.5,103.9l-74.4-74.4C379.9,13.3,347.9,0,325,0H75C52.1,0,33.3,18.8,33.3,41.7v450c0,22.9,18.8,41.7,41.7,41.7h383.3
		c22.9,0,41.7-18.8,41.7-41.7V175C500,152.1,486.7,120.1,470.5,103.9z M447,127.4c1.6,1.6,3.3,3.6,4.8,5.9h-85.1V48.2
		c2.3,1.6,4.3,3.2,5.9,4.8L447,127.4z M466.7,491.7c0,4.5-3.8,8.3-8.3,8.3H75c-4.5,0-8.3-3.8-8.3-8.3v-450c0-4.5,3.8-8.3,8.3-8.3
		h250c2.5,0,5.3,0.3,8.3,0.9v132.4h132.4c0.6,3,0.9,5.8,0.9,8.3V491.7z"/>
</g>
<polygon points="104.7,279.5 204.3,351.8 204.3,314.7 411.1,314.7 411.1,256 204.3,256 204.8,219.6 "/>
</svg>
