<svg id="Слой_1" data-name="Слой 1" xmlns="http://www.w3.org/2000/svg" viewBox="0 0 94 107"  width="21px" height="21px"><defs>
<style>.cls-1{fill:#444;}</style></defs>
<path class="cls-1" d="M714,341V331H693v10H674V331H652v10H636v97h94V341Zm-15-5h10v22H699Zm-41,0h10v22H658Zm65,95H643V355h9v9h22v-9h19v9h21v-9h9Z" transform="translate(-636 -331)"/>
<polygon class="cls-1" points="58.76 41.76 47.01 53.5 35.05 41.54 26.56 50.02 38.53 61.99 26.76 73.76 35.24 82.24 47.01 70.47 58.56 82.02 67.05 73.54 55.5 61.99 67.24 50.24 58.76 41.76"/></svg>