<svg width="51" height="47" viewBox="0 0 51 47" fill="none" xmlns="http://www.w3.org/2000/svg">
<path d="M19.4284 2.51789C18.3614 2.46753 6.71295 -1.57083 3.36962 7.97324C1.29645 13.4286 6.65352 23.6623 7.7371 24.759C7.53807 25.4332 6.88295 27.9007 6.98108 27.4265C3.40141 23.7224 -0.801602 13.3852 1.20108 7.60256C3.99295 -0.139849 13.1301 -0.475563 19.4284 2.51789Z" fill="#BCC8DD"/>
<path d="M15.2903 33.4315C23.1407 40.7445 37.1968 47.5245 44.5911 42.5056C49.7049 39.1485 48.7292 32.2356 47.4811 26.3843C50.4375 32.5013 51.9149 39.7807 46.4639 44.3003C39.8629 49.4535 24.2298 44.4667 14.7057 35.2934C14.6946 34.9618 15.2668 33.5001 15.2903 33.4315Z" fill="#BCC8DD"/>
<path d="M7.40814 37.2181H13.1881L19.1008 13.4859V16.4108H36.3759L35.3241 12.9544H13.7147L7.40814 37.2181Z" fill="white"/>
<path d="M35.3241 29.3079L35.8506 23.5308L32.4106 37.2181H28.4936L26.0625 28.9078L26.6541 23.5308L23.2389 37.2181H21.8927L18.1154 34.4261L22.3847 18.4041H27.5732L29.7417 26.3816L29.3478 32.2985L33.0256 18.4041H36.7697L41.5643 37.2181H37.4926" fill="white"/>
<path d="M17.3276 33.8946L21.3343 18.4041H20.2825L16.5384 33.2301L17.3276 33.8946Z" fill="white"/>
<path d="M22.4759 5.30851C23.1835 5.30851 23.7571 4.72796 23.7571 4.01181C23.7571 3.29567 23.1835 2.71512 22.4759 2.71512C21.7683 2.71512 21.1947 3.29567 21.1947 4.01181C21.1947 4.72796 21.7683 5.30851 22.4759 5.30851Z" fill="#BCC8DD"/>
<path d="M12.7293 12.9544H11.6789L5.56995 37.2181H6.62035L12.7293 12.9544Z" fill="white"/>
<path d="M26.2076 3.38092H25.1282C25.2529 3.91325 25.2182 4.47112 25.0285 4.9834C24.8387 5.49568 24.5025 5.93916 24.0628 6.2573C23.623 6.57543 23.0995 6.75381 22.5592 6.76967C22.0189 6.78554 21.4861 6.63819 21.0288 6.3464L20.7317 7.41369C21.3084 7.71727 21.9526 7.86533 22.6023 7.84359C23.252 7.82186 23.8851 7.63105 24.4408 7.28958C24.9964 6.94811 25.4557 6.46749 25.7743 5.8941C26.093 5.3207 26.2603 4.67386 26.2601 4.01598C26.2604 3.80317 26.2428 3.59072 26.2076 3.38092Z" fill="#BCC8DD"/>
<path d="M27.2539 3.38092C27.2817 3.59003 27.2956 3.80079 27.2954 4.01178C27.2958 4.82695 27.0944 5.62924 26.7094 6.34527C26.3245 7.06131 25.7683 7.66824 25.0917 8.11058C24.4152 8.55291 23.6399 8.81653 22.8367 8.87733C22.0335 8.93813 21.228 8.79416 20.494 8.4586L20.2355 9.47693C21.1726 9.87015 22.1947 10.0098 23.2012 9.88222C24.2078 9.75463 25.1642 9.36416 25.9765 8.74919C26.7888 8.13422 27.4291 7.31591 27.8343 6.3747C28.2395 5.43349 28.3958 4.40176 28.2877 3.38092H27.2539Z" fill="#BCC8DD"/>
</svg>
