<?xml version="1.0" encoding="utf-8"?>
<!-- Generator: Adobe Illustrator 22.1.0, SVG Export Plug-In . SVG Version: 6.00 Build 0)  -->
<svg version="1.1" id="Слой_1" xmlns="http://www.w3.org/2000/svg" xmlns:xlink="http://www.w3.org/1999/xlink" x="0px" y="0px"
	 width="32px" height="32px" viewBox="0 0 32 32" style="enable-background:new 0 0 32 32;" xml:space="preserve">
<style type="text/css">
	.st0{fill-rule:evenodd;clip-rule:evenodd;fill:#FFFFFF;}
	.st1{fill-rule:evenodd;clip-rule:evenodd;fill:#FF0000;}
</style>
<g>
	<path class="st0" d="M16.1,31.94c-0.72,0-1.41-0.27-1.94-0.76C11.03,28.4,3.69,20.95,3.69,12.41c0-0.44,0.03-0.85,0.07-1.29
		L3.77,11C4.53,4.71,9.83,0,16.09,0C22.4,0,27.7,4.71,28.42,10.96c0.08,0.49,0.08,0.98,0.08,1.45c0,8.58-7.31,16-10.46,18.8
		C17.49,31.69,16.8,31.94,16.1,31.94z"/>
	<path class="st1" d="M16.09,1.5c5.6,0,10.21,4.21,10.83,9.63C27,11.57,27,11.97,27,12.41c0,6.7-5.01,13.29-9.95,17.68
		c-0.55,0.48-1.35,0.48-1.87,0c-4.94-4.39-9.99-10.98-9.99-17.68c0-0.44,0.04-0.84,0.07-1.28C5.92,5.71,10.53,1.5,16.09,1.5
		L16.09,1.5z"/>
	<path class="st0" d="M16.09,18.04c2.96,0,5.38-2.42,5.38-5.34c0-2.96-2.42-5.34-5.38-5.34c-2.93,0-5.34,2.38-5.34,5.34
		C10.75,15.63,13.17,18.04,16.09,18.04L16.09,18.04z"/>
</g>
</svg>
