<?xml version="1.0" encoding="utf-8"?>
<!-- Generator: Adobe Illustrator 24.1.0, SVG Export Plug-In . SVG Version: 6.00 Build 0)  -->
<svg version="1.1" id="Capa_1" xmlns="http://www.w3.org/2000/svg" xmlns:xlink="http://www.w3.org/1999/xlink" x="0px" y="0px" width="19px" height="19px"
	 viewBox="0 0 19 19" style="enable-background:new 0 0 19 19;" xml:space="preserve">
<style type="text/css">
	.st0{fill:#4FA952;}
</style>
<g>
	<path class="st0" d="M15.6,10.9c-0.3-0.2-0.8-0.4-1.7-0.4c-0.6,0-1.3,0-2,0.1c-0.3-0.2-0.7-0.4-0.9-0.6c-0.7-0.7-1.3-1.6-1.7-2.6
		c0-0.1,0-0.2,0.1-0.3c0,0,0.4-2.3,0.3-3.1c0-0.1,0-0.1-0.1-0.2l0-0.1C9.5,3.6,9.3,3.3,8.9,3.3l-0.2,0l0,0C8.4,3.3,8.1,3.5,8,3.8
		C7.7,4.7,8,6,8.4,7.8L8.3,8C8,8.8,7.6,9.6,7.2,10.4l0,0.1c-0.4,0.7-0.7,1.4-1,1.9l-0.3,0.2c0,0-0.6,0.3-0.7,0.4
		c-1.1,0.7-1.8,1.4-1.9,2c0,0.2,0,0.4,0.2,0.5l0.3,0.2c0.1,0.1,0.3,0.1,0.4,0.1c0.8,0,1.7-1,2.9-3.2c1.4-0.5,3.1-0.9,4.5-1.1
		c1.1,0.6,2.5,1,3.3,1c0.2,0,0.3,0,0.4,0c0.2,0,0.3-0.1,0.4-0.3c0.2-0.2,0.2-0.6,0.2-0.9C15.8,11.2,15.7,11,15.6,10.9z M3.9,15.1
		c0.1-0.4,0.7-1.2,1.5-1.8c0.1,0,0.2-0.2,0.3-0.3C4.9,14.4,4.3,14.9,3.9,15.1z M8.9,3.7c0.3,0,0.4,0.6,0.4,1.2c0,0.6-0.1,1-0.3,1.3
		C8.8,5.8,8.8,5.1,8.8,4.6C8.8,4.6,8.8,3.7,8.9,3.7z M7.4,11.8c0.2-0.3,0.4-0.6,0.5-1c0.5-0.9,0.7-1.5,1-2.1c0.4,0.8,1,1.4,1.6,2
		c0.1,0.1,0.2,0.1,0.2,0.2C9.5,11.2,8.4,11.5,7.4,11.8z M15.4,11.8c-0.1,0-0.3,0.1-0.4,0.1c-0.5,0-1-0.2-1.8-0.6c0.3,0,0.6,0,0.8,0
		c0.5,0,0.6,0,1,0.1C15.5,11.5,15.5,11.7,15.4,11.8z M16.8,3.7L14.1,1c-0.6-0.6-1.7-1-2.5-1H2.7C1.9,0,1.2,0.7,1.2,1.5v16
		c0,0.8,0.7,1.5,1.5,1.5h13.7c0.8,0,1.5-0.7,1.5-1.5V6.2C17.8,5.4,17.3,4.3,16.8,3.7z M15.9,4.5C16,4.6,16,4.7,16.1,4.7h-3v-3
		c0.1,0.1,0.2,0.1,0.2,0.2L15.9,4.5z M16.6,17.5c0,0.2-0.1,0.3-0.3,0.3H2.7c-0.2,0-0.3-0.1-0.3-0.3v-16c0-0.2,0.1-0.3,0.3-0.3h8.9
		c0.1,0,0.2,0,0.3,0v4.7h4.7c0,0.1,0,0.2,0,0.3V17.5z"/>
</g>
</svg>
