<?xml version="1.0" encoding="utf-8"?>
<!-- Generator: Adobe Illustrator 24.1.0, SVG Export Plug-In . SVG Version: 6.00 Build 0)  -->
<svg version="1.1" xmlns="http://www.w3.org/2000/svg" xmlns:xlink="http://www.w3.org/1999/xlink" x="0px" y="0px"  width="30px" height="30px"
	 viewBox="0 0 19 19" style="enable-background:new 0 0 19 19;" xml:space="preserve">
<style type="text/css">
	.st0{fill:#939393;}
	.st1{fill:none;stroke:#939393;stroke-miterlimit:10;}
</style>
<g id="Слой_2">
</g>
<g id="Слой_3">
	<g>
		<rect x="6.9" y="13.7" class="st0" width="5.1" height="0.8"/>
	</g>
	<g>
		<rect x="5.4" y="11.5" class="st0" width="8.2" height="0.8"/>
	</g>
	<g>
		<rect x="5.4" y="15.2" class="st0" width="8.2" height="0.8"/>
	</g>
	<g>
		<rect x="5.4" y="11.5" class="st0" width="0.8" height="4.5"/>
	</g>
	<g>
		<rect x="12.8" y="11.5" class="st0" width="0.8" height="4.5"/>
	</g>
	<path class="st1" d="M3.9,13"/>
</g>
<g id="Слой_4">
	<polygon class="st0" points="5.4,13 5.4,13.7 3.2,13.7 3.2,7.8 15.9,7.8 15.9,13.7 13.6,13.7 13.6,13 15.2,13 15.2,8.5 3.9,8.5 
		3.9,13 	"/>
	<rect x="12.2" y="9.2" class="st0" width="1.4" height="1.4"/>
	<polygon class="st0" points="6.1,7.8 5.4,7.8 5.4,3.2 11.4,3.2 13.7,5.5 13.7,7.8 12.9,7.8 12.9,6 10.9,4 6.2,4 	"/>
	<polygon class="st0" points="13,6.2 10.7,6.2 10.7,3.8 11.4,4 11.4,5.5 12.9,5.5 	"/>
</g>
</svg>
