<?xml version="1.0" encoding="utf-8"?>
<!-- Generator: Adobe Illustrator 24.1.0, SVG Export Plug-In . SVG Version: 6.00 Build 0)  -->
<svg version="1.1" id="Слой_1" xmlns="http://www.w3.org/2000/svg" xmlns:xlink="http://www.w3.org/1999/xlink" x="0px" y="0px" width="19px" height="19px"
	 viewBox="0 0 19 19" style="enable-background:new 0 0 19 19;" xml:space="preserve">
<style type="text/css">
	.st0{fill:#FFFFFF;}
	.st1{fill:#4AB357;}
	.st2{fill-rule:evenodd;clip-rule:evenodd;fill:#FFFFFF;}
</style>
<path class="st0" d="M19,9.5c0,2-0.6,3.9-1.7,5.4c-1.7,2.5-4.5,4.1-7.8,4.1s-6.1-1.6-7.8-4.1c-1.1-1.5-1.7-3.4-1.7-5.4
	C0.1,4.3,4.3,0,9.5,0C14.8,0,19,4.3,19,9.5z"/>
<path class="st1" d="M18.2,9.5c0,1.9-0.6,3.6-1.6,5c-1.6,2.3-4.2,3.7-7.1,3.7c-2.9,0-5.6-1.5-7.1-3.7c-1-1.4-1.6-3.1-1.6-5
	c0-4.8,3.9-8.7,8.7-8.7C14.3,0.8,18.2,4.7,18.2,9.5z"/>
<rect x="4.2" y="8.2" class="st0" width="8" height="3"/>
<polygon class="st2" points="9.2,5.2 9.2,14.2 15.2,9.7 "/>
</svg>
