<?xml version="1.0" encoding="utf-8"?>
<!-- Generator: Adobe Illustrator 18.1.1, SVG Export Plug-In . SVG Version: 6.00 Build 0)  -->
<svg version="1.1" id="Слой_1" xmlns="http://www.w3.org/2000/svg" xmlns:xlink="http://www.w3.org/1999/xlink" x="0px" y="0px"
	 width="19px" height="19px" viewBox="0 0 19 19" enable-background="new 0 0 19 19" xml:space="preserve">
<path fill="#FFFFFF" d="M19,9.5c0,2.03-0.63,3.9-1.71,5.43C15.6,17.4,12.75,19,9.54,19c-3.21,0-6.05-1.6-7.75-4.07
	C0.72,13.4,0.09,11.53,0.09,9.5C0.09,4.25,4.32,0,9.54,0C14.77,0,19,4.25,19,9.5z"/>
<path fill="#FC275C" d="M18.23,9.5c0,1.86-0.58,3.57-1.57,4.98c-1.56,2.26-4.17,3.73-7.11,3.73c-2.95,0-5.56-1.47-7.11-3.73
	c-0.99-1.41-1.57-3.12-1.57-4.98c0-4.81,3.89-8.71,8.68-8.71C14.34,0.79,18.23,4.69,18.23,9.5z"/>
<g>
	<path fill="#F6F6F6" d="M3,7v3h2v1H3v1h3V9H4V8h3v4h1V8h1v4h3V7H3z M11,11h-1V8h1V11z"/>
	<path fill="#F6F6F6" d="M13,7v5h1v-2h2V7H13z M15,9h-1V8h1V9z"/>
</g>
</svg>
